<svg xmlns="http://www.w3.org/2000/svg" viewBox="0 0 512 512" fill-rule="evenodd" clip-rule="evenodd" stroke-linejoin="round" stroke-miterlimit="2">
  <defs>
    <linearGradient id="gradient1" x1="0%" y1="0%" x2="100%" y2="100%">
      <stop offset="0%" style="stop-color:#6366f1;stop-opacity:1" />
      <stop offset="100%" style="stop-color:#8b5cf6;stop-opacity:1" />
    </linearGradient>
  </defs>
  <rect width="512" height="512" rx="64" fill="url(#gradient1)"/>
  <path d="M128 160c0-17.7 14.3-32 32-32h192c17.7 0 32 14.3 32 32v192c0 17.7-14.3 32-32 32H160c-17.7 0-32-14.3-32-32V160z" fill="#ffffff" fill-opacity="0.1"/>
  <path d="M256 128c-70.7 0-128 57.3-128 128s57.3 128 128 128 128-57.3 128-128-57.3-128-128-128zm0 224c-53 0-96-43-96-96s43-96 96-96 96 43 96 96-43 96-96 96z" fill="#ffffff"/>
  <path d="M256 192c-35.3 0-64 28.7-64 64s28.7 64 64 64 64-28.7 64-64-28.7-64-64-64zm0 96c-17.7 0-32-14.3-32-32s14.3-32 32-32 32 14.3 32 32-14.3 32-32 32z" fill="#ffffff"/>
  <circle cx="256" cy="256" r="16" fill="#6366f1"/>
  <path d="M224 240h64v32h-64v-32zm0-16h64v16h-64v-16zm0 48h64v16h-64v-16z" fill="#ffffff"/>
</svg>
