<?xml version="1.0" encoding="UTF-8"?>
<svg version="1.1" xmlns="http://www.w3.org/2000/svg" width="400" height="400">
<path d="M0 0 C-0.99983594 6.19898285 -3.21626892 12.0749262 -5.5625 17.875 C-7.04311005 21.78749287 -7.78211232 25.68534999 -8.46484375 29.8046875 C-8.98147693 32.88940242 -9.56203525 35.95516051 -10.15698242 39.02539062 C-11.37533112 45.33351756 -12.42820436 51.59588881 -13 58 C-12.34 58 -11.68 58 -11 58 C-10.505 69.88 -10.505 69.88 -10 82 C-9.01 82 -8.02 82 -7 82 C-6.93941406 82.61488281 -6.87882812 83.22976562 -6.81640625 83.86328125 C-6.73261719 84.67152344 -6.64882812 85.47976562 -6.5625 86.3125 C-6.48128906 87.11300781 -6.40007812 87.91351563 -6.31640625 88.73828125 C-6.04734307 91.16087179 -6.04734307 91.16087179 -5 94 C-4.34 94 -3.68 94 -3 94 C-1 99 -1 99 1 104 C1.66 104 2.32 104 3 104 C3.0928125 104.928125 3.0928125 104.928125 3.1875 105.875 C3.828919 108.27761141 3.828919 108.27761141 6.5625 109.25 C7.366875 109.4975 8.17125 109.745 9 110 C9 110.66 9 111.32 9 112 C9.56976563 112.12503906 10.13953125 112.25007813 10.7265625 112.37890625 C13.08953898 113.02446168 15.15530083 113.9055346 17.375 114.9375 C26.86064058 119.34513865 36.35325953 120.93503591 46.609375 117.94921875 C52.20028175 116.05113222 52.20028175 116.05113222 56 112 C56.59683594 111.74605469 57.19367188 111.49210937 57.80859375 111.23046875 C63.09253772 108.26354834 66.768431 100.75487527 68.63964844 95.04980469 C69.75343322 90.7507237 70.4163646 86.39739088 71 82 C71.12890625 81.10023437 71.2578125 80.20046875 71.390625 79.2734375 C71.62611357 77.51966737 71.82037055 75.76036866 72 74 C76.22448388 75.56462366 78.40096753 78.41754984 81 82 C81.8125 84.875 81.8125 84.875 82 87 C82.66 87 83.32 87 84 87 C84.99152726 89.32872458 85.96816007 91.6620497 86.9375 94 C87.21529297 94.64839844 87.49308594 95.29679687 87.77929688 95.96484375 C94.11827363 111.39223297 92.30598508 132.38316666 86.6640625 147.65625 C85.34389957 152.31564859 85.23637875 157.18276406 85 162 C84.01 162.33 83.02 162.66 82 163 C81.67 167.95 81.34 172.9 81 178 C80.01 178 79.02 178 78 178 C78.33 183.28 78.66 188.56 79 194 C79.66 194 80.32 194 81 194 C81.2475 195.0725 81.495 196.145 81.75 197.25 C83.64236166 202.92708499 86.79480579 205.24044135 91.95141602 208.14233398 C95.61365109 209.67557577 99.20968205 209.5381425 103.125 209.4375 C104.30255859 209.44813477 104.30255859 209.44813477 105.50390625 209.45898438 C110.25725134 209.40688194 113.0009178 208.76127104 117 206 C117.99 206 118.98 206 120 206 C120.40412109 205.16855469 120.40412109 205.16855469 120.81640625 204.3203125 C121.62934831 202.7266241 122.49492553 201.15904018 123.40234375 199.6171875 C130.70047105 186.58083796 131.37307009 171.65718886 132 157 C142.74650858 166.76748344 145.24597315 186.66044256 145.9140625 200.53125 C146.59277343 227.92649107 146.59277343 227.92649107 142.69921875 236.91015625 C141.29317135 241.11258842 141.23452175 245.6006955 141 250 C139.68 250 138.36 250 137 250 C137 252.64 137 255.28 137 258 C135.68 258 134.36 258 133 258 C133 259.32 133 260.64 133 262 C132.01 262.66 131.02 263.32 130 264 C129.26656572 267.06556598 129.26656572 267.06556598 129 270 C127.35 270 125.7 270 124 270 C123.6596875 270.8353125 123.6596875 270.8353125 123.3125 271.6875 C121.6407496 274.63296499 119.41718785 276.64324185 117 279 C116.34 279.99 115.68 280.98 115 282 C114.01 282.33 113.02 282.66 112 283 C111.34 283.99 110.68 284.98 110 286 C109.01 286 108.02 286 107 286 C107 286.66 107 287.32 107 288 C99.78353465 293.89514071 91.63438301 298.55263081 83 302 C82.08605469 302.3815625 81.17210937 302.763125 80.23046875 303.15625 C71.63994652 306.63059191 62.99917463 308.91145435 54 311 C53.37649658 311.17490967 52.75299316 311.34981934 52.1105957 311.5300293 C49.64887847 312.07818496 47.31677502 312.21385218 44.796875 312.31640625 C43.8171875 312.35830078 42.8375 312.40019531 41.828125 312.44335938 C40.81234375 312.48267578 39.7965625 312.52199219 38.75 312.5625 C37.71875 312.60568359 36.6875 312.64886719 35.625 312.69335938 C33.0834613 312.79925682 30.54182804 312.90133443 28 313 C30.18835633 310.72820081 31.88028065 309.43858605 34.8125 308.25 C39.76551101 306.15763891 44.52823285 303.75396578 49.30200195 301.28613281 C53.78638734 299 53.78638734 299 56 299 C56 298.34 56 297.68 56 297 C57.66795308 295.87517043 59.38675195 294.8253192 61.125 293.8125 C66.12896722 290.72918258 69.44712051 287.60259389 73 283 C73.721875 282.29875 74.44375 281.5975 75.1875 280.875 C77.1488971 278.99142237 77.1488971 278.99142237 78.625 276.25 C79.07875 275.5075 79.5325 274.765 80 274 C80.66 274 81.32 274 82 274 C82.103125 273.360625 82.20625 272.72125 82.3125 272.0625 C82.86490807 269.60177314 83.53296923 267.42547641 84.375 265.0625 C86.51152628 258.85289159 87.71069505 252.42823673 89 246 C87.68 246 86.36 246 85 246 C85 247.32 85 248.64 85 250 C84.01 250.33 83.02 250.66 82 251 C81.67 251.99 81.34 252.98 81 254 C74.52702155 260.19226255 66.91310739 264.16129783 57.9375 264.5 C52.45121989 264.26966 48.31079303 263.48728531 44 260 C38.7580021 253.29136798 37.7896223 245.7966516 36.8125 237.5625 C36.64943359 236.32274414 36.48636719 235.08298828 36.31835938 233.80566406 C35.52588938 227.68709551 34.83324545 221.5622199 34.21801758 215.42358398 C32.62192097 199.51087615 28.41032505 185.22688384 20.953125 171.03125 C20 169 20 169 20 167 C19.34 167 18.68 167 18 167 C17.70867187 166.43152344 17.41734375 165.86304688 17.1171875 165.27734375 C12.12556426 155.87488362 5.44159002 148.51208373 -3 142 C-2.34 144.64 -1.68 147.28 -1 150 C-0.34 150 0.32 150 1 150 C1.66 153.96 2.32 157.92 3 162 C3.66 162 4.32 162 5 162 C5.99 169.92 5.99 169.92 7 178 C7.66 178 8.32 178 9 178 C9 191.2 9 204.4 9 218 C8.34 218.33 7.68 218.66 7 219 C6.3938445 221.79729537 6.04101869 224.59746279 5.66015625 227.43359375 C5 230 5 230 2 232 C1.26656572 235.06556598 1.26656572 235.06556598 1 238 C0.01 238.33 -0.98 238.66 -2 239 C-2.33 239.99 -2.66 240.98 -3 242 C-4.59375 243.53515625 -4.59375 243.53515625 -6.5 245.0625 C-9.18106401 247.17721767 -9.18106401 247.17721767 -11 250 C-20.57172754 254.59308817 -31.45587754 255.77777908 -41.75 253 C-51.12554613 249.25326688 -58.17140747 241.68583555 -63 233 C-63.94410561 230.62491818 -64.50726054 228.51844612 -65 226 C-65.66 226 -66.32 226 -67 226 C-64.90327372 242.45313442 -62.24785326 258.19287611 -52.4296875 271.96484375 C-51 274 -51 274 -49.5703125 276.4609375 C-42.01689905 288.6741682 -29.84615353 298.88751689 -17 305 C-17 305.66 -17 306.32 -17 307 C-12.545 308.485 -12.545 308.485 -8 310 C-8 310.66 -8 311.32 -8 312 C-14.83281305 312.29499093 -20.26441275 311.40409558 -26.75 309.3125 C-27.62688477 309.03776855 -28.50376953 308.76303711 -29.40722656 308.47998047 C-53.66518397 300.77613853 -79.18503589 289.33131035 -93.9140625 267.4609375 C-94.9509665 265.83658 -94.9509665 265.83658 -97 265 C-99.19951874 261.44593893 -101.06262244 257.70211751 -103 254 C-103.65742187 252.81664062 -103.65742187 252.81664062 -104.328125 251.609375 C-114.70569952 232.2992047 -115.53391766 211.43658382 -115 190 C-114.95552734 188.06060547 -114.95552734 188.06060547 -114.91015625 186.08203125 C-113.91084061 164.90141439 -105.76894177 146.90161748 -95 129 C-94.34 129 -93.68 129 -93 129 C-92.97421875 129.94617188 -92.9484375 130.89234375 -92.921875 131.8671875 C-92.6256214 139.55993884 -91.82693475 146.97091962 -90.1875 154.5 C-90.03442383 155.22815918 -89.88134766 155.95631836 -89.72363281 156.70654297 C-88.27889218 162.96756252 -86.51116345 169.32589104 -81 173 C-81 173.66 -81 174.32 -81 175 C-71.7177939 177.91206466 -61.72054671 178.80816898 -52.8671875 174.203125 C-48.01768005 171.07833777 -44.19985312 166.77333118 -42.43359375 161.21875 C-40.61902778 151.93340344 -42.31304507 142.17411912 -44 133 C-44.22945313 131.73027344 -44.45890625 130.46054688 -44.6953125 129.15234375 C-45.16278567 126.60257381 -45.6397073 124.05503454 -46.12109375 121.5078125 C-46.24790527 120.83097412 -46.3747168 120.15413574 -46.50537109 119.45678711 C-46.8867251 117.56262848 -47.30907736 115.67669323 -47.74853516 113.79516602 C-50.00541027 103.69986046 -50.55871025 94.01510669 -50.5 83.6875 C-50.49856995 82.8739505 -50.49713989 82.060401 -50.4956665 81.22219849 C-50.42011698 63.86693579 -47.57705097 50.34311171 -39 35 C-38.32617941 33.67026768 -37.65668881 32.33827577 -37 31 C-36.34 31 -35.68 31 -35 31 C-34.71125 30.236875 -34.4225 29.47375 -34.125 28.6875 C-33 26 -33 26 -31 23 C-30.34 23 -29.68 23 -29 23 C-28.76796875 22.43667969 -28.5359375 21.87335938 -28.296875 21.29296875 C-24.42125692 14.44059582 -8.6456384 0 0 0 Z M89 241 C90 245 90 245 90 245 Z " fill="#F21515" transform="translate(184,46)"/>
</svg>
