<svg xmlns="http://www.w3.org/2000/svg" viewBox="0 0 1200 630" width="1200" height="630">
  <defs>
    <linearGradient id="bgGradient" x1="0%" y1="0%" x2="100%" y2="100%">
      <stop offset="0%" style="stop-color:#0a0a0a;stop-opacity:1" />
      <stop offset="100%" style="stop-color:#1a1a1a;stop-opacity:1" />
    </linearGradient>
    <linearGradient id="goldGradient" x1="0%" y1="0%" x2="100%" y2="100%">
      <stop offset="0%" style="stop-color:#FFD700;stop-opacity:1" />
      <stop offset="50%" style="stop-color:#FFA500;stop-opacity:1" />
      <stop offset="100%" style="stop-color:#FF8C00;stop-opacity:1" />
    </linearGradient>
  </defs>
  
  <!-- Background -->
  <rect width="1200" height="630" fill="url(#bgGradient)"/>
  
  <!-- Main icon -->
  <g transform="translate(100, 165)">
    <circle cx="150" cy="150" r="120" fill="url(#goldGradient)" stroke="#FFD700" stroke-width="8"/>
    <path d="M80 200 L120 160 L160 180 L200 120 L240 140" stroke="#1a1a1a" stroke-width="8" fill="none" stroke-linecap="round" stroke-linejoin="round"/>
    <circle cx="80" cy="200" r="6" fill="#1a1a1a"/>
    <circle cx="120" cy="160" r="6" fill="#1a1a1a"/>
    <circle cx="160" cy="180" r="6" fill="#1a1a1a"/>
    <circle cx="200" cy="120" r="6" fill="#1a1a1a"/>
    <circle cx="240" cy="140" r="6" fill="#1a1a1a"/>
    <path d="M220 100 L260 60 L300 100" stroke="#1a1a1a" stroke-width="6" fill="none" stroke-linecap="round" stroke-linejoin="round"/>
  </g>
  
  <!-- Title -->
  <text x="400" y="200" font-family="Arial, sans-serif" font-size="72" font-weight="bold" fill="url(#goldGradient)">
    seti
  </text>
  
  <!-- Subtitle -->
  <text x="400" y="280" font-family="Arial, sans-serif" font-size="36" fill="#CCCCCC">
    Sui Prediction Markets
  </text>
  
  <!-- Description -->
  <text x="400" y="350" font-family="Arial, sans-serif" font-size="24" fill="#999999">
    Trade on real-world events with confidence
  </text>
  
  <!-- Decorative elements -->
  <circle cx="1000" cy="100" r="40" fill="url(#goldGradient)" opacity="0.3"/>
  <circle cx="1100" cy="500" r="60" fill="url(#goldGradient)" opacity="0.2"/>
  <circle cx="50" cy="500" r="30" fill="url(#goldGradient)" opacity="0.4"/>
</svg>