<svg version="1.2" xmlns="http://www.w3.org/2000/svg" viewBox="0 0 32 32" width="32" height="32"><defs><linearGradient id="P" gradientUnits="userSpaceOnUse"/><linearGradient id="g1" x2="1" href="#P" gradientTransform="matrix(30,30,-30,30,1,1)"><stop stop-color="#ffd700"/><stop offset=".5" stop-color="#ffa500"/><stop offset="1" stop-color="#ff8c00"/></linearGradient></defs><style>.a{fill:url(#g1);stroke:#1a1a1a;stroke-width:2}.b{fill:none;stroke:#1a1a1a;stroke-linecap:round;stroke-linejoin:round;stroke-width:2}.c{fill:#1a1a1a}</style><path fill-rule="evenodd" class="a" d="m16 31c-8.3 0-15-6.7-15-15 0-8.3 6.7-15 15-15 8.3 0 15 6.7 15 15 0 8.3-6.7 15-15 15z"/><path fill-rule="evenodd" class="b" d="m8 20l4-4 4 2 4-6 4 2"/><path fill-rule="evenodd" class="c" d="m8 22c-1.1 0-2-0.9-2-2 0-1.1 0.9-2 2-2 1.1 0 2 0.9 2 2 0 1.1-0.9 2-2 2z"/><path fill-rule="evenodd" class="c" d="m12 18c-1.1 0-2-0.9-2-2 0-1.1 0.9-2 2-2 1.1 0 2 0.9 2 2 0 1.1-0.9 2-2 2z"/><path fill-rule="evenodd" class="c" d="m16 20c-1.1 0-2-0.9-2-2 0-1.1 0.9-2 2-2 1.1 0 2 0.9 2 2 0 1.1-0.9 2-2 2z"/><path fill-rule="evenodd" class="c" d="m20 14c-1.1 0-2-0.9-2-2 0-1.1 0.9-2 2-2 1.1 0 2 0.9 2 2 0 1.1-0.9 2-2 2z"/><path fill-rule="evenodd" class="c" d="m24 16c-1.1 0-2-0.9-2-2 0-1.1 0.9-2 2-2 1.1 0 2 0.9 2 2 0 1.1-0.9 2-2 2z"/></svg>